<?xml version="1.0" standalone="no"?>
<!DOCTYPE svg PUBLIC "-//W3C//DTD SVG 20010904//EN"
 "http://www.w3.org/TR/2001/REC-SVG-20010904/DTD/svg10.dtd">
<svg version="1.0" xmlns="http://www.w3.org/2000/svg"
 width="700.000000pt" height="700.000000pt" viewBox="0 0 700.000000 700.000000"
 preserveAspectRatio="xMidYMid meet">
<metadata>
Created by potrace 1.11, written by Peter Selinger 2001-2013
</metadata>
<g transform="translate(0.000000,700.000000) scale(0.100000,-0.100000)"
fill="#000000" stroke="none">
<path d="M5455 5561 c-193 -91 -331 -331 -451 -779 -18 -70 -30 -99 -35 -89
-5 8 -31 73 -57 143 -64 169 -94 231 -147 303 -73 99 -166 137 -243 97 -102
-53 -209 -261 -291 -566 -22 -84 -31 -105 -46 -105 -14 0 -23 21 -45 110 -85
348 -195 528 -372 608 -43 19 -35 28 -59 -78 -22 -100 -19 -367 5 -500 2 -11
7 -38 11 -60 26 -145 100 -375 187 -580 58 -135 201 -432 217 -448 11 -11 90
43 145 99 52 53 117 147 160 231 33 66 93 243 106 314 6 30 12 65 15 79 3 14
7 43 10 65 5 37 21 59 36 49 4 -2 72 -198 151 -435 79 -237 149 -434 156 -436
20 -8 113 43 164 90 50 47 108 131 146 212 102 215 249 645 287 840 45 230 56
330 57 497 1 151 -20 336 -41 360 -4 4 -34 -5 -66 -21z"/>
<path d="M1987 5520 c-173 -109 -336 -362 -447 -691 -18 -52 -34 -101 -36
-109 -2 -8 -12 -46 -23 -85 -11 -38 -22 -81 -25 -95 -2 -14 -10 -50 -16 -80
-17 -85 -40 -237 -47 -315 -7 -90 -7 -338 1 -390 20 -128 47 -238 61 -253 7
-8 117 72 161 116 143 145 258 388 319 674 15 68 31 133 35 145 15 36 36 17
50 -45 50 -224 157 -442 247 -501 69 -44 162 -31 227 34 53 53 134 197 161
285 1 3 11 37 23 75 21 70 39 144 49 200 3 17 7 37 8 45 2 8 4 20 4 27 1 6 9
9 20 6 13 -3 24 -24 36 -71 84 -310 174 -498 294 -611 38 -36 105 -81 120 -81
4 0 12 19 16 43 4 23 10 58 13 77 9 50 8 365 -1 430 -8 58 -23 148 -33 190 -3
14 -7 36 -10 50 -6 32 -62 226 -75 265 -6 17 -15 39 -19 50 -4 11 -31 85 -60
165 -101 281 -180 390 -275 385 -101 -6 -205 -148 -288 -395 -33 -98 -82 -274
-93 -338 -6 -32 -28 -57 -42 -48 -5 3 -74 198 -152 433 -78 236 -145 431 -149
436 -4 4 -28 -6 -54 -23z"/>
<path d="M5805 3099 c-98 -18 -355 -92 -430 -123 -16 -7 -68 -27 -115 -45 -98
-38 -106 -41 -182 -75 -32 -15 -62 -34 -67 -44 -26 -49 -12 -117 32 -159 44
-42 49 -43 262 -59 115 -8 135 -10 139 -15 3 -2 -19 -42 -47 -89 -161 -265
-302 -422 -568 -635 -33 -25 -165 -112 -211 -138 -27 -15 -68 -38 -92 -52 -53
-29 -184 -88 -275 -122 -76 -28 -291 -88 -347 -97 -22 -3 -50 -8 -64 -11 -96
-20 -424 -28 -563 -13 -511 56 -987 318 -1386 766 -124 140 -217 278 -313 467
-89 175 -100 193 -148 253 -52 65 -115 111 -198 143 -47 19 -77 23 -179 23
-81 1 -126 -3 -134 -11 -15 -15 -2 -72 62 -264 50 -153 62 -184 136 -339 225
-473 584 -869 1048 -1157 328 -204 765 -347 1160 -380 154 -13 443 -6 565 13
355 56 597 132 885 279 118 60 330 192 391 244 17 14 42 35 55 45 232 185 477
474 621 731 124 222 224 464 244 587 10 67 7 159 -8 202 -20 61 -55 81 -146
83 -42 1 -99 -3 -127 -8z"/>
</g>
</svg>
